<svg xmlns="http://www.w3.org/2000/svg" viewBox="0 0 1700 1704"><style>.st0{fill:url(#SVGID_1_)}.st1{fill:#333}</style><g id="Layer_15__x2B__Layer_20__x2B__Layer_16_xA0_Image_1_"><linearGradient id="SVGID_1_" gradientUnits="userSpaceOnUse" x1="58.456" y1="852" x2="1641.544" y2="852" gradientTransform="rotate(-90 850 852)"><stop offset="0" stop-color="#f7af45"/><stop offset="1" stop-color="#fccd46"/></linearGradient><ellipse class="st0" cx="850" cy="852" rx="793.4" ry="791.5"/><path class="st1" d="M0 850.8C.6 380.9 383.1-.9 851.7 0c471.4.9 853 385.3 850.3 856.1-2.7 467.4-384.7 847.5-854.9 846C380.7 1700.7-.6 1318 0 850.8zm1330.9-75.5h-1.1c0 25.2.1 50.3 0 75.5-.1 19.2-13.7 32.5-32.9 32.8-7 .1-14-.2-21 .1-11.2.4-20 8-21.6 18.6-4.9 33.5-9.7 66.9-14.5 100.4-5.8 40.4-11.8 80.8-17.3 121.2-2.1 15.7-3.2 31.5-4.2 47.2-.2 3.5.8 7.9 2.8 10.7 49 66.8 98.1 133.4 147.3 200.1 10.3 13.9 25 14.8 37 2.4 59.1-61.4 106.9-130.7 143-207.9 42-90 65.7-184.5 71-283.7 3.3-60.8-.4-121.3-11.4-181.2-13.8-75-38.2-146.5-73.4-214.3-59.1-113.5-141.2-206.9-246.5-279.6-114.7-79.2-241.9-123.8-381-134-68.2-5-135.9-1-203 12.1-75.1 14.7-146.4 40.1-213.8 76.3-91.1 49-169.4 113.6-235 193.6-42.6 52-77.9 108.5-105.6 169.7-37.4 82.4-59.5 168.8-66.1 259.1-4.3 58.9-1.9 117.5 7.2 175.9 13.1 84 39.3 163.8 79.2 238.9 60 113.3 143 206.5 249.2 278.4 134.6 91 283.5 134.8 445.9 132.5 18.3-.3 28.3-15.3 21.6-32.5-3.6-9.3-6.8-18.8-11.1-27.8-10.5-22.3-20.9-44.6-32.3-66.4-7.3-14-18.7-24.2-33.2-31.4-23.9-12-45.1-28-60.7-50.1-9.7-13.7-18-28.4-27-42.7-4.7-7.6-9.6-9.3-18.2-6.6-12.9 4-25.8 7.8-38.6 11.9-15.7 5-31.8 6.6-47.9 2.9-36.5-8.5-63.4-28.7-73.9-66-7-25-12.2-50.5-18.1-75.8-6.8-28.9-13.3-57.8-20.4-86.5-4.5-18.4-19.4-30-38.3-31-7.3-.4-14.7-1.3-22-1-21.6.7-39.2-15.3-38.8-39.8.8-55-.1-110 .4-165 .1-17.4-10.1-27.9-27.7-27.5-34.5.7-69 .4-103.5.1-8.1-.1-16.4-1-24.1-3.3-15.3-4.4-26.4-14-31-29.8-1.2-4-1.5-8.2-2.7-12.2-2.3-7.6 0-12.8 6.6-17.4 45.6-31.8 91-64.1 136.7-95.9 10.9-7.6 16.1-17.4 17.1-30.5 4.3-57.7 19.4-112.5 44.9-164.3 33.2-67.5 80.2-123.6 140.8-168.1 63.1-46.3 133.5-74.3 211-84.7 35.3-4.7 70.9-4.7 106.3-3.4 24.7.9 49.7 2.9 74 7.4 103.3 19.2 190.3 68.3 259.9 147 64.8 73 102.4 158.3 112.1 255.3 3 29.9 2.7 60.2 3.9 90.3zm-381.3 288.9c34.7 4.3 64.4 35.1 65.2 69.1.4 16.1-1.9 32.6-4.9 48.5-8.6 44.9-33.2 79.3-71.3 104.3-2.1 1.4-4.3 3.3-5.5 5.5-7.2 13.3-11.1 27.5-11.2 42.6-.2 29.9 11.2 54.7 33.8 74.4 15.5 13.5 30.9 27 46.3 40.5 39.6 34.7 79.3 69.3 118.8 104.1 9.3 8.2 18.8 9.3 29.8 3.6 22.6-11.7 45.6-22.8 68.1-34.8 33.7-17.9 66.7-37 97.9-59.1 9.2-6.6 13-16.3 9.4-26.1-1.4-3.7-3.7-7.1-6.1-10.3-51.5-69.9-103.1-139.7-154.3-209.8-4.4-6-7.6-13.4-9.6-20.6-5.6-20.8-3.7-42.1-.8-63.1 8.7-62.2 17.7-124.3 26.6-186.5 2.3-15.7-7.5-27.2-23.4-27.3-14.2-.1-28.3-.1-42.5 0-11.7 0-19.4 5.8-23.1 16.9-2.1 6.3-4.2 12.7-6.9 18.7-16.1 35.5-51.2 57.9-88.5 56.7-6.6-.2-11.5-3.5-13.2-8.8-1.8-5.7.3-10 5.6-14.7 6.5-5.9 13-11.9 18.3-18.9 6.9-9 8.3-19.9 7.1-30.9-1.3-11.3-11.1-19.1-23.7-19.1H620.6c-.7 0-1.3.1-2 0-2.5-.2-3.6.9-3.5 3.5.1 4.7-.1 9.3.1 14 .5 18.4 7.9 33.6 21.9 45.3 23.3 19.6 46.8 39.1 70.3 58.5 15.7 12.9 24.6 29.3 27.3 49.4 5.4 39.8 11.1 79.5 16.8 119.2 2.2 15.7 9.7 28.3 23.1 36.9 9.9 6.4 21.1 10.9 32.7 7.4 25.2-7.6 50.2-15.7 74.9-24.9 29.4-10.9 48-33.2 53.7-63.9 4.1-22.3 6.7-44.8 9.9-67.2 1.5-10.9 2.1-21.7 3.8-33.1zM940.5 681H1244c11.8 0 16.7-6 14.3-17.6-1.9-9.1-3.6-18.3-5.9-27.3-22.5-86.1-68.6-157-138.4-212.1-57.9-45.7-123.7-72.8-197.1-80.9-40.5-4.5-81.2-3.7-121.8-.7-14.1 1-28 2.8-40.6 10.7-13.7 8.7-26.8 18.1-38.3 29.5-28.5 28.1-48.3 61.8-63.3 98.6-17.7 43.4-27.9 88.6-30.8 135.3-1.1 17.4-.2 35 .3 52.4.2 7.8 5.3 11.9 13.1 12.1 1.7.1 3.3 0 5 0h300zm72 77.1H776.6c-2 0-4-.1-6 .1-7.8.5-12.1 6.3-9.9 13.8 2.1 7.5 4.5 15 6.9 22.4 2.7 8.3 5.1 10 13.8 10H1252.2c8.9 0 12.4-3.5 12.5-12.4.1-7.5.1-15 0-22.5-.1-7.3-3.9-10.9-11.2-11.3-1.7-.1-3.3 0-5 0-78.8-.1-157.4-.1-236-.1z"/></g></svg>
